name rise43.5482peak65.4966fall89.1036.mot
datacolumns 19
datarows 35
range 4.62330900000000 4.67997800000000
endheader
time	ground_force1_vx	ground_force1_vy	ground_force1_vz	ground_force1_px	ground_force1_py	ground_force1_pz	ground_force2_vx	ground_force2_vy	ground_force2_vz	ground_force2_px	ground_force2_py	ground_force2_pz	ground_torque1_x	ground_torque1_y	ground_torque1_z	ground_torque2_x	ground_torque2_y	ground_torque2_z	
4.62330900000000	-46.68254500000000	810.05228599999998	58.95290900000000	0.07121900000000	0.00000000000000	0.14249900000000	0.00000000000000	0.00000000000000	0.00000000000000	0.00000000000000	0.00000000000000	0.00000000000000	0.00000000000000	21.06565500000000	0.00000000000000	0.00000000000000	0.00000000000000	0.00000000000000	
4.62498000000000	-47.48540300000000	808.99163699999997	58.92092100000000	0.07023300000000	0.00000000000000	0.14234600000000	-1.44428000000000	3.78811000000000	1.14782900000000	0.00000000000000	0.00000000000000	0.00000000000000	0.00000000000000	21.11377900000000	0.00000000000000	0.00000000000000	0.29702000000000	0.00000000000000	
4.62664600000000	-48.30695100000000	807.84567900000002	58.87749600000000	0.06924000000000	0.00000000000000	0.14219200000000	-2.34371200000000	7.01884200000000	1.93672500000000	0.00000000000000	0.00000000000000	0.00000000000000	0.00000000000000	21.16518300000000	0.00000000000000	0.00000000000000	0.50717700000000	0.00000000000000	
4.62831400000000	-49.14690900000000	806.61289699999998	58.82227400000000	0.06824200000000	0.00000000000000	0.14203700000000	-3.36764500000000	10.88354600000000	2.85040100000000	0.00000000000000	0.00000000000000	0.00000000000000	0.00000000000000	21.21987500000000	0.00000000000000	0.00000000000000	0.75177800000000	0.00000000000000	
4.62997600000000	-50.00494000000000	805.29169100000001	58.75490000000000	0.06723700000000	0.00000000000000	0.14188200000000	-4.48691000000000	15.33027700000000	3.86758300000000	0.00000000000000	0.00000000000000	0.00000000000000	0.00000000000000	21.27785000000000	0.00000000000000	0.00000000000000	1.02550600000000	0.00000000000000	
4.63164900000000	-50.88064700000000	803.88038100000006	58.67502200000000	0.06622800000000	0.00000000000000	0.14172600000000	-5.66449200000000	20.27786500000000	4.95998300000000	0.00000000000000	0.00000000000000	0.00000000000000	0.00000000000000	21.33909200000000	0.00000000000000	0.00000000000000	1.32117100000000	0.00000000000000	
4.63331100000000	-51.77357300000000	802.37720500000000	58.58229400000000	0.06521500000000	0.00000000000000	0.14157000000000	-6.85795400000000	25.62187100000000	6.09418200000000	0.31034900000000	0.00000000000000	-0.04736600000000	0.00000000000000	21.40357300000000	0.00000000000000	0.00000000000000	3.19669100000000	0.00000000000000	
4.63498000000000	-52.68319900000000	800.78031499999997	58.47637700000000	0.06419800000000	0.00000000000000	0.14141300000000	-8.02251000000000	31.24313900000000	7.23411700000000	0.31095400000000	0.00000000000000	-0.04824900000000	0.00000000000000	21.47125400000000	0.00000000000000	0.00000000000000	3.80567800000000	0.00000000000000	
4.63664700000000	-53.60894100000000	799.08777999999995	58.35693700000000	0.06317900000000	0.00000000000000	0.14125500000000	-9.11439400000000	37.01782000000000	8.34385400000000	0.31155400000000	0.00000000000000	-0.04907500000000	0.00000000000000	21.54208200000000	0.00000000000000	0.00000000000000	4.40334100000000	0.00000000000000	
4.63831400000000	-54.55015400000000	797.29758500000003	58.22365000000000	0.06215700000000	0.00000000000000	0.14109700000000	-10.09403000000000	42.82744500000000	9.39025900000000	0.31215800000000	0.00000000000000	-0.04985200000000	0.00000000000000	21.61598900000000	0.00000000000000	0.00000000000000	4.97297800000000	0.00000000000000	
4.63997800000000	-55.50612500000000	795.40763100000004	58.07619600000000	0.06113500000000	0.00000000000000	0.14093800000000	-10.92862800000000	48.56773200000000	10.34523500000000	0.31277300000000	0.00000000000000	-0.05058400000000	0.00000000000000	21.69289500000000	0.00000000000000	0.00000000000000	5.50040400000000	0.00000000000000	
4.64164200000000	-56.47607500000000	793.41574100000003	57.91426700000000	0.06011200000000	0.00000000000000	0.14077800000000	-11.59393200000000	54.15519400000000	11.18728200000000	0.31340100000000	0.00000000000000	-0.05127600000000	0.00000000000000	21.77270300000000	0.00000000000000	0.00000000000000	5.97474200000000	0.00000000000000	
4.64330900000000	-57.45915900000000	791.31965900000000	57.73756200000000	0.05909000000000	0.00000000000000	0.14061800000000	-12.07503600000000	59.53111400000000	11.90231100000000	0.31404700000000	0.00000000000000	-0.05193200000000	0.00000000000000	21.85530400000000	0.00000000000000	0.00000000000000	6.38883400000000	0.00000000000000	
4.64497600000000	-58.45446400000000	789.11705500000005	57.54579100000000	0.05806800000000	0.00000000000000	0.14045700000000	-12.36631800000000	64.66287500000000	12.48372200000000	0.31471300000000	0.00000000000000	-0.05255600000000	0.00000000000000	21.94056800000000	0.00000000000000	0.00000000000000	6.73928100000000	0.00000000000000	
4.64664900000000	-59.46100900000000	786.80552999999998	57.33867400000000	0.05704900000000	0.00000000000000	0.14029500000000	-12.47062700000000	69.54293300000000	12.93185800000000	0.31540000000000	0.00000000000000	-0.05315100000000	0.00000000000000	22.02835200000000	0.00000000000000	0.00000000000000	7.02617200000000	0.00000000000000	
4.64831200000000	-60.47774400000000	784.38261799999998	57.11594100000000	0.05603200000000	0.00000000000000	0.14013200000000	-12.39790700000000	74.18589200000000	13.25297700000000	0.31610800000000	0.00000000000000	-0.05371900000000	0.00000000000000	22.11849500000000	0.00000000000000	0.00000000000000	7.25257300000000	0.00000000000000	
4.64997800000000	-61.50354900000000	781.84579399999996	56.87733500000000	0.05501900000000	0.00000000000000	0.13996800000000	-12.16348100000000	78.62427000000000	13.45791300000000	0.31683700000000	0.00000000000000	-0.05426200000000	0.00000000000000	22.21081800000000	0.00000000000000	0.00000000000000	7.42385600000000	0.00000000000000	
4.65164200000000	-62.53723700000000	779.19248100000004	56.62261100000000	0.05400900000000	0.00000000000000	0.13980400000000	-11.78618400000000	82.90352500000000	13.56059500000000	0.31758600000000	0.00000000000000	-0.05478400000000	0.00000000000000	22.30512700000000	0.00000000000000	0.00000000000000	7.54695800000000	0.00000000000000	
4.65331500000000	-63.57755000000000	776.42005300000005	56.35153400000000	0.05300400000000	0.00000000000000	0.13963800000000	-11.28653600000000	87.07687700000000	13.57656100000000	0.31835400000000	0.00000000000000	-0.05528500000000	0.00000000000000	22.40120500000000	0.00000000000000	0.00000000000000	7.62963600000000	0.00000000000000	
4.65497600000000	-64.62316199999999	773.52584800000000	56.06388500000000	0.05200500000000	0.00000000000000	0.13947200000000	-10.68508200000000	91.20038900000000	13.52160000000000	0.31913900000000	0.00000000000000	-0.05576700000000	0.00000000000000	22.49882100000000	0.00000000000000	0.00000000000000	7.67978300000000	0.00000000000000	
4.65664100000000	-65.67267900000000	770.50717099999997	55.75946000000000	0.05101200000000	0.00000000000000	0.13930500000000	-10.00102100000000	95.32865300000000	13.41060100000000	0.31993900000000	0.00000000000000	-0.05623100000000	0.00000000000000	22.59772300000000	0.00000000000000	0.00000000000000	7.70484200000000	0.00000000000000	
4.65830800000000	-66.72463600000000	767.36130500000002	55.43806700000000	0.05002500000000	0.00000000000000	0.13913800000000	-9.25116500000000	99.51131300000000	13.25666500000000	0.32075300000000	0.00000000000000	-0.05668000000000	0.00000000000000	22.69764200000000	0.00000000000000	0.00000000000000	7.71136000000000	0.00000000000000	
4.65997900000000	-67.77750500000000	764.08551899999998	55.09952900000000	0.04904500000000	0.00000000000000	0.13896900000000	-8.44926400000000	103.79055200000001	13.07050900000000	0.32157600000000	0.00000000000000	-0.05711400000000	0.00000000000000	22.79828900000000	0.00000000000000	0.00000000000000	7.70467500000000	0.00000000000000	
4.66165700000000	-68.82968900000000	760.67708100000004	54.74368900000000	0.04807200000000	0.00000000000000	0.13880000000000	-7.60567400000000	108.19955400000001	12.86014400000000	0.32240800000000	0.00000000000000	-0.05753400000000	0.00000000000000	22.89935700000000	0.00000000000000	0.00000000000000	7.68875300000000	0.00000000000000	
4.66331400000000	-69.87952700000000	757.13326099999995	54.37040100000000	0.04710800000000	0.00000000000000	0.13863000000000	-6.72733700000000	112.76189599999999	12.63081800000000	0.32324500000000	0.00000000000000	-0.05794100000000	0.00000000000000	23.00052100000000	0.00000000000000	0.00000000000000	7.66614500000000	0.00000000000000	
4.66497800000000	-70.92529300000000	753.45134800000005	53.97954100000000	0.04615100000000	0.00000000000000	0.13846000000000	-5.81802300000000	117.49173700000000	12.38516700000000	0.32408500000000	0.00000000000000	-0.05833600000000	0.00000000000000	23.10143800000000	0.00000000000000	0.00000000000000	7.63806500000000	0.00000000000000	
4.66664800000000	-71.96520200000001	749.62865499999998	53.57100100000000	0.04520300000000	0.00000000000000	0.13828900000000	-4.87875200000000	122.39464700000001	12.12353200000000	0.32492400000000	0.00000000000000	-0.05872000000000	0.00000000000000	23.20174700000000	0.00000000000000	0.00000000000000	7.60453800000000	0.00000000000000	
4.66831400000000	-72.99740799999999	745.66253600000005	53.14469300000000	0.04426300000000	0.00000000000000	0.13811700000000	-3.90835700000000	127.46889800000000	11.84439100000000	0.32576100000000	0.00000000000000	-0.05909300000000	0.00000000000000	23.30106900000000	0.00000000000000	0.00000000000000	7.56462200000000	0.00000000000000	
4.66997800000000	-74.02000800000000	741.55039099999999	52.70054700000000	0.04333200000000	0.00000000000000	0.13794500000000	-2.90409000000000	132.70702800000001	11.54484200000000	0.32659100000000	0.00000000000000	-0.05945700000000	0.00000000000000	23.39901200000000	0.00000000000000	0.00000000000000	7.51664800000000	0.00000000000000	
4.67164900000000	-75.03104500000001	737.28968099999997	52.23851700000000	0.04241100000000	0.00000000000000	0.13777200000000	-1.86224800000000	138.09752200000000	11.22110100000000	0.32741200000000	0.00000000000000	-0.05981100000000	0.00000000000000	23.49516300000000	0.00000000000000	0.00000000000000	7.45847300000000	0.00000000000000	
4.67331200000000	-76.02851000000000	732.87794099999996	51.75857500000000	0.04149700000000	0.00000000000000	0.13759900000000	-0.77874000000000	143.62645100000000	10.86897500000000	0.32822100000000	0.00000000000000	-0.06015700000000	0.00000000000000	23.58909900000000	0.00000000000000	0.00000000000000	7.38772700000000	0.00000000000000	
4.67497500000000	-77.01034900000001	728.31279099999995	51.26071700000000	0.04059300000000	0.00000000000000	0.13742600000000	0.35040700000000	149.27896100000001	10.48427500000000	0.32901600000000	0.00000000000000	-0.06049400000000	0.00000000000000	23.68038100000000	0.00000000000000	0.00000000000000	7.30202300000000	0.00000000000000	
4.67664300000000	-77.97446100000001	723.59194700000000	50.74496300000000	0.03969800000000	0.00000000000000	0.13725200000000	1.52865700000000	155.04053500000001	10.06315500000000	0.32979300000000	0.00000000000000	-0.06082400000000	0.00000000000000	23.76855500000000	0.00000000000000	0.00000000000000	7.19913700000000	0.00000000000000	
4.67830900000000	-78.91870500000000	718.71323900000004	50.21135600000000	0.03881100000000	0.00000000000000	0.13707800000000	2.75867000000000	160.89797200000001	9.60236000000000	0.33055100000000	0.00000000000000	-0.06114600000000	0.00000000000000	23.85315800000000	0.00000000000000	0.00000000000000	7.07714100000000	0.00000000000000	
4.67997800000000	-79.84090700000000	713.67462200000000	49.65996600000000	0.03793200000000	0.00000000000000	0.13690400000000	4.04212400000000	166.84007199999999	9.09939200000000	0.33128500000000	0.00000000000000	-0.06146100000000	0.00000000000000	23.93371700000000	0.00000000000000	0.00000000000000	6.93449200000000	0.00000000000000	
